<svg xmlns="http://www.w3.org/2000/svg" width="100.85" height="102.155" viewBox="0 0 55.47 56.188">
  <metadata><?xpacket begin="﻿" id="W5M0MpCehiHzreSzNTczkc9d"?>
<x:xmpmeta xmlns:x="adobe:ns:meta/" x:xmptk="Adobe XMP Core 5.6-c142 79.160924, 2017/07/13-01:06:39        ">
   <rdf:RDF xmlns:rdf="http://www.w3.org/1999/02/22-rdf-syntax-ns#">
      <rdf:Description rdf:about=""/>
   </rdf:RDF>
</x:xmpmeta>
                                                                                                    
                                                                                                    
                                                                                                    
                                                                                                    
                                                                                                    
                                                                                                    
                                                                                                    
                                                                                                    
                                                                                                    
                                                                                                    
                                                                                                    
                                                                                                    
                                                                                                    
                                                                                                    
                                                                                                    
                                                                                                    
                                                                                                    
                                                                                                    
                                                                                                    
                                                                                                    
                           
<?xpacket end="w"?></metadata>
<defs>
    <style>
      .cls-1 {
        fill: #c6a723;
        fill-rule: evenodd;
      }
    </style>
  </defs>
  <path class="cls-1" d="M2230.45,521.664a7.263,7.263,0,1,0,7.28,7.263A7.274,7.274,0,0,0,2230.45,521.664Zm0,12.724a5.462,5.462,0,1,1,5.47-5.462A5.477,5.477,0,0,1,2230.45,534.388ZM2230.6,496a9.583,9.583,0,0,0-9.58,9.56c0,2.291,1.76,7.765,5.22,16.269a1.177,1.177,0,0,0,1.1.74,1.208,1.208,0,0,0,.44-0.086,1.192,1.192,0,0,0,.66-1.545c-4.39-10.779-5.04-14.263-5.04-15.378a7.2,7.2,0,0,1,14.4,0c0,1.121-.65,4.606-5.04,15.376a1.187,1.187,0,0,0,2.2.891c3.46-8.5,5.22-13.97,5.22-16.267A9.583,9.583,0,0,0,2230.6,496Zm23.67,38.492c-1.85-1.355-7.3-3.167-16.2-5.385a1.192,1.192,0,0,0-.57,2.314c11.28,2.812,14.48,4.339,15.38,5a7.28,7.28,0,0,1,1.59,10.106,7.165,7.165,0,0,1-10.04,1.6c-0.88-.647-3.27-3.179-9.27-12.852a1.175,1.175,0,0,0-1.63-.378,1.208,1.208,0,0,0-.38,1.643c4.74,7.638,8.07,12.187,9.89,13.518a9.513,9.513,0,0,0,13.34-2.127A9.673,9.673,0,0,0,2254.27,534.493Zm-26.6.368a1.175,1.175,0,0,0-1.63.382c-6.17,9.933-8.61,12.523-9.51,13.184a7.226,7.226,0,0,1-8.48-11.7c0.91-.66,4.12-2.189,15.44-5a1.192,1.192,0,0,0-.57-2.314c-8.94,2.219-14.41,4.029-16.27,5.384a9.615,9.615,0,0,0,5.65,17.391,9.508,9.508,0,0,0,5.62-1.832c1.86-1.357,5.27-6.016,10.13-13.853A1.189,1.189,0,0,0,2227.67,534.861Z" transform="translate(-2202.72 -496)"/>
</svg>
